<svg width="24" height="24" viewBox="0 0 24 24" fill="none" xmlns="http://www.w3.org/2000/svg">
<g id="icons8:down-round">
<path id="Vector" d="M12 2.25C6.624 2.25 2.25 6.624 2.25 12C2.25 17.376 6.624 21.75 12 21.75C17.376 21.75 21.75 17.376 21.75 12C21.75 6.624 17.376 2.25 12 2.25ZM12 3.75C16.5653 3.75 20.25 7.43475 20.25 12C20.25 16.5653 16.5653 20.25 12 20.25C7.43475 20.25 3.75 16.5653 3.75 12C3.75 7.43475 7.43475 3.75 12 3.75ZM11.25 6.75V14.46L8.25 11.46L7.1955 12.54L11.4608 16.8045L12.0007 17.3445L12.5408 16.8045L16.8053 12.5392L15.75 11.46L12.75 14.46V6.75H11.25Z" fill="#F8F8F8"/>
</g>
</svg>
