<svg width="24" height="24" viewBox="0 0 24 24" fill="none" xmlns="http://www.w3.org/2000/svg">
<g id="icons8:up-round">
<path id="Vector" d="M12 2.25C6.624 2.25 2.25 6.624 2.25 12C2.25 17.376 6.624 21.75 12 21.75C17.376 21.75 21.75 17.376 21.75 12C21.75 6.624 17.376 2.25 12 2.25ZM12 3.75C16.5653 3.75 20.25 7.43475 20.25 12C20.25 16.5653 16.5653 20.25 12 20.25C7.43475 20.25 3.75 16.5653 3.75 12C3.75 7.43475 7.43475 3.75 12 3.75ZM12 6.65625L11.46 7.19625L7.1955 11.4608L8.25 12.54L11.25 9.54V17.25H12.75V9.54L15.75 12.54L16.8045 11.46L12.5392 7.1955L11.9992 6.6555L12 6.65625Z" fill="#FAFAFA"/>
</g>
</svg>
